<svg width="60" height="60" viewBox="0 0 60 60" fill="none" xmlns="http://www.w3.org/2000/svg">
  <g clip-path="url(#clip0_5_16)">
    <path
      d="M57 9H3C2.20435 9 1.44129 9.31607 0.87868 9.87868C0.316071 10.4413 0 11.2044 0 12L0 48C0 48.7957 0.316071 49.5587 0.87868 50.1213C1.44129 50.6839 2.20435 51 3 51H57C57.7957 51 58.5587 50.6839 59.1213 50.1213C59.6839 49.5587 60 48.7957 60 48V12C60 11.2044 59.6839 10.4413 59.1213 9.87868C58.5587 9.31607 57.7957 9 57 9ZM39 21H51V24H39V21ZM33 44.409C32.5135 44.0372 31.9798 43.7316 31.413 43.5C27.873 41.976 22.53 39.72 22.53 36.972C22.53 35.319 23.607 35.859 24.084 32.835C24.282 31.581 25.239 32.814 25.419 29.952C25.419 28.812 24.897 28.527 24.897 28.527C24.897 28.527 25.161 26.841 25.266 25.539C25.374 24.18 25.3107 21.3697 23.5 20C22.3663 19.1424 21.4205 18.9466 20 19C18.0832 19.0721 16.9553 19.8469 15.621 21.225C14.3208 22.5679 13.47 24.48 13.554 25.542C13.665 26.841 13.929 28.53 13.929 28.53C13.929 28.53 13.404 28.812 13.404 29.952C13.587 32.814 14.544 31.581 14.739 32.835C15.213 35.859 16.296 35.319 16.296 36.972C16.296 39.72 10.953 41.976 7.413 43.5C6.91534 43.7085 6.44161 43.97 6 44.28V15H33V44.409ZM54 33H39V30H54V33Z"
      fill="#2C0040" />
    <path
      d="M19.5143 17C22.5681 17 25.4968 18.2131 27.6561 20.3725C29.8155 22.5318 31.0286 25.4605 31.0286 28.5143C31.0286 31.3663 29.9834 33.988 28.2651 36.0074L28.7434 36.4857H30.1429L39 45.3429L36.3429 48L27.4857 39.1429V37.7434L27.0074 37.2651C24.9181 39.0486 22.2613 40.0284 19.5143 40.0286C16.4605 40.0286 13.5318 38.8155 11.3725 36.6561C9.21311 34.4968 8 31.5681 8 28.5143C8 25.4605 9.21311 22.5318 11.3725 20.3725C13.5318 18.2131 16.4605 17 19.5143 17ZM19.5143 20.5429C15.0857 20.5429 11.5429 24.0857 11.5429 28.5143C11.5429 32.9429 15.0857 36.4857 19.5143 36.4857C23.9429 36.4857 27.4857 32.9429 27.4857 28.5143C27.4857 24.0857 23.9429 20.5429 19.5143 20.5429Z"
      fill="#3959FF" />
  </g>
  <defs>
    <clipPath id="clip0_5_16">
      <rect width="60" height="60" fill="white" />
    </clipPath>
  </defs>
</svg>