<svg width="1306" height="416" viewBox="0 0 1306 416" fill="none" xmlns="http://www.w3.org/2000/svg">
  <path
    d="M866 218.735C866 193.957 871.403 172.315 882.208 153.809C893.331 135.304 908.903 120.876 928.925 110.526C948.946 100.175 972.305 95 999 95C1025.7 95 1049.05 100.175 1069.08 110.526C1089.1 120.876 1104.51 135.304 1115.32 153.81C1126.44 172.315 1132 193.957 1132 218.735C1132 243.2 1126.44 264.685 1115.32 283.19C1104.51 302.009 1089.1 316.437 1069.08 326.474C1049.05 336.825 1025.7 342 999 342C972.305 342 948.946 336.825 928.925 326.474C908.903 316.437 893.331 302.009 882.208 283.19C871.403 264.685 866 243.2 866 218.735ZM915.577 218.735C915.577 238.182 922.886 253.237 937.505 263.901C952.124 274.565 972.622 279.897 999 279.897C1025.06 279.897 1045.4 274.565 1060.02 263.901C1074.95 253.237 1082.42 238.182 1082.42 218.735C1082.42 199.289 1075.11 184.234 1060.49 173.569C1045.88 162.905 1025.38 157.573 999 157.573C972.622 157.573 952.124 162.905 937.505 173.569C922.886 184.234 915.577 199.289 915.577 218.735Z"
    fill="#4D0182" />
  <circle cx="629.5" cy="35.5" r="35.5" fill="#4D0182" />
  <rect x="600" y="95" width="60" height="247" rx="4" fill="#4D0182" />
  <rect x="857" y="95" width="51" height="27" rx="4" transform="rotate(90 857 95)" fill="#4D0182" />
  <rect x="714" y="95" width="60" height="247" rx="4" fill="#4D0182" />
  <path
    d="M768.512 148C768.512 136.5 794.5 95 837 95C843 95 851.012 145.5 843.512 145.5C767.503 145.5 774.004 212 774.004 212C774.004 212 768.512 159.5 768.512 148Z"
    fill="#4D0182" />
  <rect x="1179" y="36" width="60" height="247" rx="4" fill="#4D0182" />
  <rect x="1306" y="95" width="46" height="168" rx="4" transform="rotate(90 1306 95)" fill="#4D0182" />
  <rect x="1306" y="296" width="47" height="38" rx="4" transform="rotate(90 1306 296)"
    fill="#4D0182" />
  <path
    d="M1179.01 278C1179.02 266 1238.98 246.001 1238.98 256.001C1238.98 291.373 1252.54 296 1285 296C1294.01 296 1287.49 343 1277.5 343C1222.5 343 1179.01 331.5 1179.01 278Z"
    fill="#4D0182" />
  <path fill-rule="evenodd" clip-rule="evenodd"
    d="M32.1338 215H4.28516C2.07602 215 0.285156 216.791 0.285156 219V411.714C0.285156 413.923 2.07602 415.714 4.28516 415.714H56.2035C58.4127 415.714 60.2035 413.923 60.2035 411.714V277.888C42.2948 268.146 30.2461 249.939 30.2461 229.085C30.2461 224.222 30.9015 219.502 32.1338 215Z"
    fill="#4D0182" />
  <path
    d="M300 218.735C300 193.957 305.403 172.315 316.208 153.809C327.331 135.304 342.903 120.876 362.925 110.526C382.946 100.175 406.305 95 433 95C459.695 95 483.054 100.175 503.075 110.526C523.097 120.876 538.51 135.304 549.315 153.81C560.438 172.315 566 193.957 566 218.735C566 243.2 560.438 264.685 549.315 283.19C538.51 302.009 523.097 316.437 503.075 326.474C483.054 336.825 459.695 342 433 342C406.305 342 382.946 336.825 362.925 326.474C342.903 316.437 327.331 302.009 316.208 283.19C305.403 264.685 300 243.2 300 218.735ZM349.577 218.735C349.577 238.182 356.886 253.237 371.505 263.901C386.124 274.565 406.622 279.897 433 279.897C459.06 279.897 479.399 274.565 494.018 263.901C508.955 253.237 516.423 238.182 516.423 218.735C516.423 199.289 509.114 184.234 494.495 173.569C479.876 162.905 459.378 157.573 433 157.573C406.622 157.573 386.124 162.905 371.505 173.569C356.886 184.234 349.577 199.289 349.577 218.735Z"
    fill="#4D0182" />
  <path
    d="M1.93472e-06 218.735C3.01782e-06 193.957 5.40261 172.315 16.2079 153.809C27.3309 135.304 42.9032 120.876 62.9247 110.526C82.9462 100.175 106.305 95 133 95C159.695 95 183.054 100.175 203.075 110.526C223.097 120.876 238.51 135.304 249.315 153.81C260.438 172.315 266 193.957 266 218.735C266 243.2 260.438 264.685 249.315 283.19C238.51 302.009 223.097 316.437 203.075 326.474C183.054 336.825 159.695 342 133 342C106.305 342 82.9462 336.825 62.9247 326.474C42.9032 316.437 27.3309 302.009 16.2079 283.19C5.40261 264.685 8.65336e-07 243.2 1.93472e-06 218.735ZM49.5771 218.735C49.577 238.182 56.8865 253.237 71.5054 263.901C86.1242 274.565 106.622 279.897 133 279.897C159.06 279.897 179.399 274.565 194.018 263.901C208.955 253.237 216.423 238.182 216.423 218.735C216.423 199.289 209.114 184.234 194.495 173.569C179.876 162.905 159.378 157.573 133 157.573C106.622 157.573 86.1242 162.905 71.5054 173.569C56.8865 184.234 49.5771 199.289 49.5771 218.735Z"
    fill="#4D0182" />
  <path fill-rule="evenodd" clip-rule="evenodd"
    d="M345 129.284C327.092 121.761 306.759 118 284 118C259.096 118 237.096 122.504 218 131.512L218 200.2C219.416 198.938 220.917 197.728 222.505 196.569C237.124 185.905 257.622 180.573 284 180.573C310.081 180.573 330.415 185.786 345 196.212L345 129.284Z"
    fill="#4D0182" />
  <circle cx="460.5" cy="254.5" r="35.5" fill="#4D0182" />
  <circle cx="160.5" cy="254.5" r="35.5" fill="#4D0182" />
</svg>