<svg width="156" height="65" viewBox="0 0 156 65" fill="none" xmlns="http://www.w3.org/2000/svg">
  <path
    d="M45.3992 47.9821C44.9998 47.9821 44.5116 48.3375 42.3812 48.3375C28.573 48.3375 31.7588 32.7902 21.0599 29.9793C30.9229 27.7583 39.9376 17.7612 39.9376 14.9651C39.9376 12.6083 38.1623 10.8759 36.4856 10.8759C35.8864 10.8759 27.5793 26.9563 16.6462 28.2099C18.7717 22.7042 20.8454 18.1239 20.8454 15.9868C20.8454 12.5195 17.8717 10.6982 16.0964 10.6982C15.9188 10.6982 15.8301 10.7427 15.8301 10.8759C15.8301 21.0532 7.25916 35.4061 7.25916 41.2721C7.25916 45.27 10.0134 47.3158 11.6975 47.3158C11.9638 47.3158 12.0526 47.227 12.0526 46.9604C12.0526 41.778 13.7342 36.0551 15.6279 30.8727C26.3539 32.847 22.9585 51.7579 38.0267 51.7579C43.1776 51.7579 45.7075 48.9594 45.7075 48.2486C45.7099 48.071 45.5768 47.9821 45.3992 47.9821Z"
    fill="#4D0182" />
  <path
    d="M149.517 33.4069C146.642 36.2128 143.136 38.2513 140.794 38.9694C143.158 32.2545 146.268 24.7671 146.268 24.5178C146.268 23.8515 143.205 22.2079 142.761 22.2079C142.653 22.2079 142.318 22.7953 141.854 23.7405C140.806 22.8718 139.265 21.9858 137.662 21.9858C132.238 21.9858 125.896 29.2733 125.896 35.9833C125.896 40.919 128.517 42.871 131.18 42.871C133.138 42.871 134.878 41.5458 136.267 39.8899C136.649 41.6174 137.938 42.871 139.171 42.871C141.884 42.871 149.961 36.161 149.961 33.8511C149.965 33.7919 149.956 33.7325 149.935 33.677C149.914 33.6214 149.881 33.571 149.839 33.529C149.797 33.487 149.747 33.4544 149.691 33.4334C149.636 33.4123 149.577 33.4033 149.517 33.4069ZM132.6 39.7172C131.614 39.7172 130.603 38.6042 130.603 36.2943C130.603 30.8651 135.266 25.3618 138.772 24.4734C139.839 24.4734 140.448 25.2138 140.818 25.9911C139.47 29.0216 137.768 33.2194 136.839 36.0697C135.389 38.4783 133.734 39.7172 132.6 39.7172Z"
    fill="#4D0182" />
  <path
    d="M122.922 22.2103C122.875 22.2103 122.542 22.8915 122.039 23.9946C120.999 23.0543 119.327 21.9882 117.549 21.9882C112.748 21.9882 107.139 27.6988 105.997 33.7943C100.02 38.7299 96.8123 39.7171 94.5043 39.7171C93.0643 39.7171 90.9438 39.0236 90.8723 35.6229C91.8767 36.2129 93.0271 36.5072 94.1912 36.4719C98.5432 36.4719 104.316 33.2637 104.316 26.7857C104.316 24.7843 99.8772 21.9858 97.8775 21.9858C93.8238 21.9858 87.403 27.8394 86.3181 34.1669C83.8721 36.1856 81.1129 38.1895 79.4978 38.9496C81.0932 33.8116 84.8288 24.8632 87.2403 18.9602C97.6728 18.2964 108.401 17.5091 109.6 17.1784C110.093 17.0452 110.532 16.601 110.532 16.29C110.532 16.0679 110.443 15.9791 110.088 15.9791C109.595 15.9791 98.992 16.1716 88.3474 16.2259C89.0205 14.5403 89.4422 13.4125 89.4422 13.1756C89.4422 12.5957 86.466 10.8633 85.9334 10.8633C85.82 10.8633 84.8682 13.0522 83.5515 16.2407C80.5704 16.2407 77.7028 16.2407 75.1902 16.1962C65.199 16.1962 62.536 15.3967 61.6903 15.3967C61.5127 15.3967 61.3796 15.5299 61.3796 15.7965C61.3796 18.2396 64.1338 20.0189 67.0187 20.0189C68.5647 20.0362 74.9436 19.7055 82.3186 19.2613C80.3165 24.1969 77.9025 30.3344 76.2135 34.8086C74.1201 36.4225 71.8368 37.997 70.1872 38.7571C72.3546 32.627 74.6551 26.3538 74.6551 25.7788C74.6551 24.2685 72.1697 21.9586 71.1488 21.9586C70.0861 21.9586 66.533 23.9329 63.2905 26.2082C63.6481 25.189 63.8675 24.54 63.8675 24.4807C63.8626 23.9378 60.8051 22.2103 60.3612 22.2103C59.979 22.2103 58.1199 26.9165 55.3854 34.1571C52.9196 36.2991 50.2911 38.1056 48.4221 38.8805C50.5377 32.2174 53.9232 24.7695 53.9232 24.5202C53.9232 23.9427 50.8607 22.2103 50.4169 22.2103C50.3158 22.2103 49.9952 22.81 49.5489 23.7749C48.501 22.8964 46.9427 21.9882 45.3103 21.9882C39.9375 21.9882 33.5438 29.1449 33.5438 35.9857C33.5438 40.9214 36.1649 42.8734 38.8279 42.8734C40.9213 42.8734 42.7731 41.3582 44.1958 39.5443C44.4079 41.4421 45.5051 42.8734 46.8194 42.8734C48.792 42.8734 51.6251 40.4401 53.9971 37.8489L52.9467 40.6524C52.9467 41.5852 55.3459 42.8734 56.6453 42.8734C57.1385 42.903 60.1837 34.89 62.1612 29.4435C63.8256 28.064 66.925 25.764 68.6782 25.764C69.0332 25.764 69.6102 26.033 69.6102 26.566C69.6102 28.1208 66.1015 36.963 65.3026 38.8286C65.3026 41.4075 67.2554 42.8734 68.4563 42.8734C69.953 42.8734 72.5346 40.7091 74.9313 38.3474L74.7587 38.841C74.7587 41.4199 76.714 42.8857 77.9124 42.8857C79.9022 42.8857 83.4011 39.3962 86.1874 36.3287C86.36 40.1539 89.5063 42.8857 92.7857 42.8857C98.1906 42.8857 102.942 38.8015 105.8 35.8031C105.8 35.8697 105.8 35.9339 105.8 35.9981C105.8 40.9337 108.465 42.8857 111.084 42.8857C112.43 42.8857 113.68 42.2565 114.783 41.3261C112.07 49.0257 108.199 54.2624 103.142 54.2624C99.855 54.2624 98.4791 52.2166 98.4791 50.7507C98.4791 48.3964 100.876 46.8417 103.541 46.8417C103.763 46.8417 103.941 46.7528 103.941 46.6196C103.941 46.0421 99.4112 44.6626 91.1189 44.6626C80.7282 44.6626 71.5384 46.2642 62.9256 49.2848C62.0379 49.5958 60.0826 51.417 60.0826 53.7738C60.0826 54.7955 60.704 55.9948 60.9703 55.9948C61.2366 55.9948 65.5886 52.4856 73.7576 49.9067C81.7153 47.3148 90.0837 46.2204 98.4397 46.6788C97.0934 47.2933 95.3821 48.6925 95.3821 51.5059C95.3821 54.2624 97.6457 57.5051 103.107 57.5051C112.386 57.5051 116.028 51.1949 118.691 44.1789C119.978 40.8029 126.46 24.7596 126.46 24.5375C126.428 23.9378 123.455 22.2103 122.922 22.2103ZM40.2482 39.7319C39.2619 39.7319 38.2509 38.6189 38.2509 36.309C38.2509 30.8798 42.9136 25.3765 46.4199 24.4881C47.5443 24.4881 48.1607 25.3 48.5257 26.1317C47.4753 28.6341 46.2103 31.8916 45.3202 34.5223C43.7076 37.9526 41.6068 39.7171 40.2482 39.7171V39.7319ZM98.9451 24.4733C103.253 25.2285 97.7123 34.3446 93.3504 34.3446C92.6476 34.3446 91.7353 34.1126 91.2348 33.318C92.3049 29.9396 95.5646 26.0749 98.9451 24.4733ZM110.49 36.2942C110.49 30.865 115.152 25.3617 118.659 24.4733C119.953 24.4733 120.577 25.5493 120.917 26.4945C119.761 29.1153 118.301 32.511 117.078 35.4502C115.549 38.2685 113.715 39.7171 112.487 39.7171C111.511 39.7171 110.49 38.6041 110.49 36.2942Z"
    fill="#4D0182" />
</svg>